PathFileType	4	(X/Y/Z)	/Users/itak/Documents/Research/Walk-IL/dataset/trc/00391_00012.trc
DataRate	CameraRate	NumFrames	NumMarkers	Units	OrigDataRate	OrigDataStartFrame	OrigNumFrames
100.000000	100.000000	4	55	mm	100.000000	343	550
Frame#	Time	RPSI			LPSI			L3			STRN			T10			C7			CLAV			RBAK			LBAK			LSHO			LUPA			LAEL			LAOL			LWTS			LWPS			LFRA			LHPS			LHTS			RSHO			RUPA			RAEL			RWTS			RWPS			RFRA			RIFD			RHTS			RHPS			RBHD			LFHD			RFHD			LBHD			LHIP			RHIP			RASI			LASI			LKNE			LTHI			LANK			LTIP			LTOE			LMT1			LMT5			LHEE			RKNE			RTHI			RANK			RTIP			RTOE			RMT1			RMT5			RHEE			LIFD			RAOL			*53			*54			
		X1	Y1	Z1	X2	Y2	Z2	X3	Y3	Z3	X4	Y4	Z4	X5	Y5	Z5	X6	Y6	Z6	X7	Y7	Z7	X8	Y8	Z8	X9	Y9	Z9	X10	Y10	Z10	X11	Y11	Z11	X12	Y12	Z12	X13	Y13	Z13	X14	Y14	Z14	X15	Y15	Z15	X16	Y16	Z16	X17	Y17	Z17	X18	Y18	Z18	X19	Y19	Z19	X20	Y20	Z20	X21	Y21	Z21	X22	Y22	Z22	X23	Y23	Z23	X24	Y24	Z24	X25	Y25	Z25	X26	Y26	Z26	X27	Y27	Z27	X28	Y28	Z28	X29	Y29	Z29	X30	Y30	Z30	X31	Y31	Z31	X32	Y32	Z32	X33	Y33	Z33	X34	Y34	Z34	X35	Y35	Z35	X36	Y36	Z36	X37	Y37	Z37	X38	Y38	Z38	X39	Y39	Z39	X40	Y40	Z40	X41	Y41	Z41	X42	Y42	Z42	X43	Y43	Z43	X44	Y44	Z44	X45	Y45	Z45	X46	Y46	Z46	X47	Y47	Z47	X48	Y48	Z48	X49	Y49	Z49	X50	Y50	Z50	X51	Y51	Z51	X52	Y52	Z52	X53	Y53	Z53	X54	Y54	Z54	X55	Y55	Z55	

344	3.43	-489.8352661132812	954.7929077148438	12.69643020629883	-494.6902770996094	946.5640869140625	-119.7837142944336	-481.9170532226562	1036.939453125	-52.17833709716797	-248.9021759033203	1191.7978515625	-44.70238876342773	-487.822509765625	1134.401977539062	-66.55485534667969	-459.6162719726562	1385.032958984375	-71.51250457763672	-304.5198059082031	1310.1015625	-50.22571182250977	-507.0369567871094	1239.0087890625	-11.34774208068848	-466.3867797851562	1349.400512695312	-175.9069061279297	-374.7823181152344	1366.125122070312	-217.4390716552734	-390.6593627929688	1249.430786132812	-289.1180419921875	-351.2171936035156	1059.435180664062	-321.1099853515625	-405.9190979003906	1027.48681640625	-263.4980773925781	-192.8246612548828	904.6096801757812	-298.5632019042969	-239.5622253417969	870.0514526367188	-357.6448974609375	-307.8605651855469	971.837158203125	-337.8456115722656	-184.2815246582031	803.4891967773438	-358.6580200195312	-133.77978515625	832.2793579101562	-331.1645202636719	-421.1464233398438	1364.353149414062	89.89609527587891	-448.4273681640625	1302.884521484375	141.9302520751953	-495.1790161132812	1048.663452148438	178.0489044189453	-397.9815673828125	821.8837890625	211.2705078125	-461.4400024414062	820.6228637695312	247.6007690429688	-487.3207397460938	983.0025634765625	204.9305725097656	-420.6068420410156	651.1939086914062	224.9102783203125	-403.0933532714844	719.2659912109375	244.1234130859375	-468.7550964355469	731.7319946289062	253.7408599853516	-421.6207580566406	1571.086181640625	24.95501518249512	-281.2254333496094	1581.177612304688	-114.653205871582	-291.0970458984375	1584.629638671875	7.533177852630615	-426.3910827636719	1563.730712890625	-137.25732421875	-409.3481750488281	935.7975463867188	-235.1714630126953	-402.672119140625	937.7823486328125	125.1485900878906	-274.1073608398438	950.7056274414062	64.67924499511719	-296.0820617675781	932.0452880859375	-196.9789276123047	-377.5434875488281	437.3296203613281	-197.6967468261719	-369.7903747558594	579.2642822265625	-212.2941436767578	-749.1661987304688	168.6392669677734	-178.6877288818359	-567.4281616210938	292.2856750488281	-200.0908660888672	-597.2227783203125	43.662353515625	-96.46942138671875	-656.7578125	88.34575653076172	-71.92238616943359	-660.523681640625	78.50924682617188	-179.2308807373047	-780.1439819335938	198.2751922607422	-125.8241806030273	-206.0470275878906	477.8257751464844	68.6820068359375	-269.8517150878906	728.4437866210938	113.0837631225586	-207.6502990722656	54.81882095336914	37.01185607910156	-176.3035888671875	353.6711730957031	48.7669677734375	-33.22301483154297	35.80064392089844	-37.51299285888672	-110.130859375	38.70670318603516	-62.53648376464844	-122.8875045776367	48.16893005371094	35.80285263061523	-283.0241394042969	40.19271087646484	-11.66802597045898	-107.8584289550781	750.4058227539062	-319.0841979980469	-480.3649597167969	1034.084716796875	83.82400512695312	nan	nan	nan	nan	nan	nan	
345	3.44	-501.5908203125	952.7731323242188	12.54808330535889	-507.1311950683594	945.0218505859375	-119.9087753295898	-493.6215209960938	1035.832885742188	-52.19286727905273	-260.376220703125	1189.63720703125	-46.03454208374023	-498.9514465332031	1132.97900390625	-67.40151214599609	-470.5046997070312	1383.407104492188	-72.6102294921875	-315.6784057617188	1308.065673828125	-51.52627182006836	-518.2674560546875	1237.614624023438	-12.20011329650879	-477.5474853515625	1347.760009765625	-177.02978515625	-385.9312744140625	1364.289184570312	-218.5836639404297	-401.4393005371094	1247.579223632812	-290.2258911132812	-360.7012939453125	1057.851806640625	-322.0487976074219	-415.6265563964844	1025.525024414062	-264.8383483886719	-201.0906219482422	904.7941284179688	-298.6982421875	-247.0425567626953	869.960693359375	-358.3173828125	-316.5740051269531	970.7711181640625	-338.6009826660156	-191.1740112304688	803.7620239257812	-358.8565063476562	-141.1047515869141	832.9688110351562	-330.7980346679688	-431.8685913085938	1362.775512695312	88.73040771484375	-459.2974243164062	1301.36962890625	140.7645721435547	-507.0410461425781	1047.271606445312	176.0822448730469	-411.0726013183594	819.996826171875	209.7815399169922	-474.8439025878906	818.9856567382812	245.6740112304688	-499.6183471679688	981.5995483398438	203.0297698974609	-434.6768798828125	649.3518676757812	222.9304351806641	-417.0056457519531	717.32763671875	242.3858642578125	-482.6452026367188	730.12841796875	251.5959014892578	-432.3559265136719	1569.106567382812	23.90735626220703	-291.8411254882812	1579.346069335938	-115.5927200317383	-301.8262329101562	1582.571533203125	6.616834163665771	-437.0147399902344	1561.986938476562	-138.3157806396484	-422.4229125976562	934.3668823242188	-235.8003234863281	-413.8396301269531	935.8099365234375	124.427848815918	-285.3404846191406	948.7996215820312	63.25281524658203	-308.9845886230469	930.120361328125	-198.3357543945312	-396.2156677246094	435.6723022460938	-196.2403869628906	-386.9248962402344	577.7149047851562	-211.8974151611328	-764.5586547851562	162.2706756591797	-178.0169372558594	-584.1586303710938	288.2413940429688	-198.8931732177734	-612.5132446289062	41.76596069335938	-92.95928192138672	-672.2670288085938	84.1202392578125	-69.74198913574219	-674.9406127929688	73.65689849853516	-177.0697784423828	-796.4192504882812	192.2981262207031	-125.7601928710938	-212.5669708251953	478.0879516601562	67.74861145019531	-279.439208984375	727.7216186523438	112.0588150024414	-207.7201690673828	54.92829132080078	36.90412521362305	-180.9553833007812	354.4134826660156	47.91706466674805	-33.21037292480469	35.70862579345703	-37.77464294433594	-110.124641418457	38.66733932495117	-62.60075759887695	-122.8079605102539	48.38682174682617	35.68415832519531	-282.9198608398438	39.90445327758789	-11.74830913543701	-114.6680450439453	751.2906494140625	-318.4774780273438	-491.741943359375	1032.73876953125	82.03106689453125	nan	nan	nan	nan	nan	nan	
346	3.45	-513.62353515625	950.650146484375	12.39196968078613	-519.8736572265625	943.4317016601562	-120.0371475219727	-505.7614440917969	1034.519653320312	-52.2412223815918	-272.0214233398438	1187.35791015625	-47.48568344116211	-510.3950805664062	1131.611694335938	-67.9638671875	-481.4283752441406	1381.773193359375	-73.72062683105469	-326.9283447265625	1305.960571289062	-52.94038391113281	-529.6094360351562	1236.280517578125	-12.96425724029541	-488.8239440917969	1346.094970703125	-178.1475982666016	-397.2151184082031	1362.4130859375	-219.7929992675781	-412.4070434570312	1245.687866210938	-291.3762512207031	-370.4983215332031	1056.199096679688	-322.9710693359375	-425.5470275878906	1023.53857421875	-266.0933227539062	-209.8177490234375	904.6822509765625	-298.8794555664062	-254.9532928466797	869.7020263671875	-359.008544921875	-325.6604614257812	969.599853515625	-339.3545532226562	-198.6217803955078	803.7827758789062	-359.0919799804688	-148.9707336425781	833.3246459960938	-330.4808654785156	-442.4851379394531	1361.221435546875	87.54570770263672	-470.0108947753906	1299.906494140625	139.6422729492188	-518.66796875	1045.927368164062	174.3218536376953	-423.9350891113281	818.1196899414062	208.1505737304688	-487.8948669433594	817.3494873046875	243.7914733886719	-511.6685791015625	980.2379150390625	201.2588653564453	-448.5694580078125	647.529052734375	220.6656341552734	-430.6409301757812	715.361572265625	240.3807525634766	-496.1832885742188	728.5181274414062	249.4194030761719	-443.0966186523438	1567.052368164062	22.83797645568848	-302.494140625	1577.4658203125	-116.5740203857422	-312.5653686523438	1580.4541015625	5.663671016693115	-447.6710205078125	1560.192993164062	-139.3932495117188	-435.7967529296875	932.8796997070312	-236.4297485351562	-425.3100891113281	933.7095947265625	123.6676635742188	-296.9646301269531	946.8013305664062	61.73515701293945	-322.2106018066406	928.183837890625	-199.7579040527344	-414.7034606933594	434.1404724121094	-194.9544982910156	-404.1417846679688	576.2430419921875	-211.5907897949219	-778.5880737304688	154.4721221923828	-177.1417999267578	-600.1566162109375	283.619873046875	-197.7311706542969	-625.2811279296875	40.28104782104492	-89.84220123291016	-685.485107421875	79.40154266357422	-67.73500823974609	-687.2485961914062	68.42152404785156	-175.0372619628906	-811.4656982421875	184.651123046875	-125.4143676757812	-219.6073303222656	478.2306213378906	66.84674072265625	-289.4496459960938	726.861083984375	110.9842529296875	-207.8443145751953	55.08874893188477	36.77300262451172	-186.0237884521484	355.0992736816406	47.1083984375	-33.25253677368164	35.75386810302734	-38.05007934570312	-110.1556167602539	38.74430465698242	-62.64460754394531	-122.7781066894531	48.72385025024414	35.58026885986328	-282.9005126953125	39.59293746948242	-11.84528732299805	-122.1421279907227	751.794189453125	-317.9470825195312	-503.1710510253906	1031.462036132812	80.37245941162109	nan	nan	nan	nan	nan	nan	
347	3.46	-525.9287109375	948.443603515625	12.23638820648193	-532.9180908203125	941.7975463867188	-120.1591110229492	-518.3046264648438	1032.98291015625	-52.33345413208008	-283.8164672851562	1184.953002929688	-49.04735946655273	-522.1715698242188	1130.28173828125	-68.23650360107422	-492.3888854980469	1380.134643554688	-74.85115814208984	-338.2604675292969	1303.775146484375	-54.46056365966797	-541.0546264648438	1234.999389648438	-13.65414047241211	-500.2020874023438	1344.406860351562	-179.2666931152344	-408.6134948730469	1360.488403320312	-221.0670776367188	-423.5489807128906	1243.743896484375	-292.5699157714844	-380.6066284179688	1054.459350585938	-323.8896789550781	-435.6808166503906	1021.509643554688	-267.2769775390625	-219.0070343017578	904.2562866210938	-299.1293029785156	-263.3290710449219	869.2348022460938	-359.7163696289062	-335.1198120117188	968.2998657226562	-340.1168518066406	-206.6172790527344	803.5286254882812	-359.3780822753906	-157.3705291748047	833.3367919921875	-330.2512512207031	-453.0060424804688	1359.676025390625	86.34291839599609	-480.5748901367188	1298.469116210938	138.5648956298828	-530.0780029296875	1044.6083984375	172.7997283935547	-436.5692749023438	816.242431640625	206.4062957763672	-500.5775146484375	815.7007446289062	241.9916687011719	-523.4750366210938	978.890380859375	199.6515502929688	-462.2603759765625	645.7171020507812	218.1390838623047	-443.9698791503906	713.35595703125	238.1370697021484	-509.3494567871094	726.882080078125	247.2450714111328	-453.8365173339844	1564.944458007812	21.75314140319824	-313.1852722167969	1575.541381835938	-117.5901107788086	-323.3121643066406	1578.295043945312	4.675519466400146	-458.3551330566406	1558.36376953125	-140.4868469238281	-449.4920959472656	931.3372192382812	-237.0654296875	-437.0097961425781	931.4873046875	122.9059066772461	-309.0162048339844	944.7060546875	60.12148284912109	-335.7454528808594	926.24267578125	-201.2424011230469	-432.9419555664062	432.7270812988281	-193.9448089599609	-421.3627014160156	574.8550415039062	-211.4389190673828	-791.3377685546875	145.5403289794922	-176.0242614746094	-615.4698486328125	278.5681762695312	-196.6412353515625	-635.3724365234375	39.32186889648438	-87.28193664550781	-696.3724365234375	74.54289245605469	-65.93370056152344	-697.4829711914062	63.18295288085938	-173.1830596923828	-825.3119506835938	175.5514373779297	-124.692008972168	-227.1685028076172	478.2467041015625	65.99681854248047	-299.8670959472656	725.875244140625	109.8522262573242	-208.0441284179688	55.30970001220703	36.62776565551758	-191.5233001708984	355.7250671386719	46.36777114868164	-33.37607192993164	36.0699577331543	-38.33504867553711	-110.2438583374023	39.0260009765625	-62.65879821777344	-122.8344497680664	49.23561096191406	35.50420761108398	-282.9681091308594	39.22308731079102	-11.96501541137695	-130.2393646240234	751.9202880859375	-317.5357055664062	-514.6910400390625	1030.227905273438	78.86931610107422	nan	nan	nan	nan	nan	nan	
